<?xml version="1.0" encoding="UTF-8"?>
<svg id="_图层_2" data-name="图层 2" xmlns="http://www.w3.org/2000/svg" viewBox="0 0 210 201.95">
  <defs>
    <style>
      .cls-1 {
        font-family: OptimaLTPro-Bold, 'Optima LT Pro';
        font-size: 45px;
        font-weight: 700;
      }

      .cls-1, .cls-2, .cls-3 {
        fill: #002554;
      }

      .cls-2 {
        font-family: FZFW-ZZABTMC--GB1-0, 'FZFW ZhuZi A BiaoTiMinChoS';
        font-size: 42px;
      }
    </style>
  </defs>
  <g id="_图层_1-2" data-name="图层 1">
    <g>
      <path class="cls-3" d="M96.02,10.92h1.75c-1.54,2.57-3.43,11.92,.14,19.77h0c-.43,0-.78,.35-.78,.78h0c0,.43,.35,.78,.78,.78h1.15s5.54,0,5.54,0h0s.85,0,.85,0c.43,0,.78-.35,.78-.78h0c0-.43-.35-.78-.78-.78h0c3.57-7.85,1.67-17.2,.14-19.77h1.75c.55,0,1-.45,1-1s-.45-1-1-1h-.11v-.22c0-1.46-1.02-2.69-2.38-3.02,.44-.4,.71-.97,.71-1.6v-.72c.38-.05,.67-.38,.67-.77,0-.43-.35-.78-.78-.78h-.78v-.14c0-.89-.7-1.62-1.57-1.68h-2.85c-.87,.06-1.57,.79-1.57,1.68v.14h-.78c-.43,0-.78,.35-.78,.78,0,.39,.29,.71,.66,.77v.39s.01,.33,.01,.33c0,.63,.28,1.2,.71,1.6-1.36,.33-2.38,1.56-2.38,3.02v.22h-.11c-.55,0-1,.45-1,1s.45,1,1,1Z"/>
      <g>
        <rect class="cls-3" x="93.47" y="88.99" width="16.49" height="5.86"/>
        <g>
          <g>
            <polygon class="cls-3" points="46.07 90.58 46.07 97.05 33.74 103.05 33.74 96.54 46.07 90.58"/>
            <polygon class="cls-3" points="157.3 90.58 157.3 97.05 169.62 103.05 169.62 96.54 157.3 90.58"/>
          </g>
          <g>
            <rect class="cls-3" x="114.57" y="88.99" width="16.49" height="5.86"/>
            <rect class="cls-3" x="135.71" y="88.99" width="16.49" height="5.86"/>
            <rect class="cls-3" x="51.16" y="88.99" width="16.49" height="5.86"/>
            <rect class="cls-3" x="72.3" y="88.99" width="16.49" height="5.86"/>
          </g>
        </g>
      </g>
      <path class="cls-3" d="M23.95,93.12l22.93-11.13h109.62l22.93,11.13c17.61-2.76,23.95-23.01,23.95-23.01-12.15,12.8-39.39,8.57-34.79-4.14,4.01-10.41,2.05-17.2,2.05-17.2-5.33,9.7-14.54,12.75-20.56,12.92-7.05,.2-12.46-4.1-12.46-4.1v-12.07l3.15-2.23v-11.15h-9.83v5.24h-23.19v-2.6h-12.31v2.6h-23.14v-5.24h-9.67v11.15l3.15,2.23v12.07s-5.41,4.3-12.46,4.1c-6.02-.17-15.23-3.22-20.56-12.92,0,0-1.96,6.79,2.05,17.2C39.39,78.67,12.16,82.9,0,70.1,0,70.1,6.34,90.36,23.95,93.12Z"/>
      <text class="cls-1" transform="translate(17.06 142.98)"><tspan x="0" y="0">NLPGM</tspan></text>
      <text class="cls-2" transform="translate(0 191.08)"><tspan x="0" y="0">语言·智能</tspan></text>
    </g>
  </g>
</svg>